<?xml version="1.0" standalone="no"?>
<!DOCTYPE svg PUBLIC "-//W3C//DTD SVG 20010904//EN"
 "http://www.w3.org/TR/2001/REC-SVG-20010904/DTD/svg10.dtd">
<svg version="1.0" xmlns="http://www.w3.org/2000/svg"
 viewBox="0 0 2600.000000 2604.000000"
 preserveAspectRatio="xMidYMid meet">
<metadata>
Created by potrace 1.13, written by Peter Selinger 2001-2015
</metadata>
<g transform="translate(0.000000,2604.000000) scale(0.100000,-0.100000)"
fill="#000000" stroke="none">
<path d="M17575 23219 l-1860 -29 -125 -124 c-69 -68 -1268 -1231 -2665 -2586
-1397 -1355 -2597 -2519 -2666 -2587 l-126 -125 -189 -19 c-104 -10 -265 -22
-359 -25 -237 -9 -278 2 -500 131 -69 40 -86 46 -122 42 -58 -6 -147 -72 -285
-211 l-113 -113 -249 -709 c-137 -390 -250 -710 -250 -711 -1 0 -602 -44
-1336 -97 -734 -53 -1362 -99 -1396 -102 l-60 -6 -12 -210 -12 -210 44 -91
c72 -151 94 -285 76 -462 -29 -292 -121 -568 -257 -775 -112 -169 -255 -256
-513 -313 -138 -31 -238 -43 -470 -57 -179 -11 -236 -20 -295 -44 -56 -24
-120 -91 -151 -159 l-29 -62 0 -439 0 -439 42 -14 43 -15 2 -211 3 -212 1465
-657 c806 -361 1466 -661 1467 -665 1 -4 52 -1002 113 -2218 61 -1215 114
-2216 118 -2224 4 -7 57 -42 118 -76 l111 -63 84 9 c46 4 99 11 116 13 l33 5
0 -50 0 -49 -38 0 c-46 0 -76 -20 -102 -68 -11 -20 -30 -49 -41 -63 -15 -19
-23 -46 -26 -93 -16 -198 150 -308 310 -206 67 42 100 98 105 174 3 53 0 69
-27 120 l-32 59 21 22 c16 17 20 35 20 93 l0 71 33 6 c17 3 55 8 82 13 43 6
50 11 53 32 4 39 162 3839 162 3898 0 29 5 52 10 52 6 0 497 -220 1093 -489
l1082 -490 7 -63 c4 -35 21 -767 38 -1628 16 -861 33 -1626 36 -1701 l6 -135
-209 -76 -208 -76 -3 -280 -2 -280 -66 -7 c-36 -4 -177 -4 -314 0 -320 9 -374
-3 -400 -94 -18 -64 2 -73 197 -90 156 -14 367 -14 509 0 l113 11 62 -39 63
-38 -125 -7 c-231 -13 -351 -40 -395 -89 -9 -10 -17 -35 -18 -55 -1 -33 4 -40
34 -58 32 -19 50 -21 195 -20 163 0 269 15 470 63 l80 19 58 -33 59 -33 -75
-16 c-137 -31 -224 -91 -246 -173 -21 -76 41 -121 169 -122 84 -1 128 12 176
50 49 39 113 72 184 94 l55 17 225 -109 226 -109 402 50 402 51 0 355 0 356
-60 59 -60 59 0 303 0 303 548 1425 c499 1301 548 1422 554 1388 4 -21 66
-1291 139 -2823 72 -1532 133 -2788 135 -2791 2 -4 35 -25 74 -48 l70 -42 0
-104 0 -105 31 0 c30 0 31 -2 25 -32 -42 -235 -28 -437 36 -505 32 -34 111
-56 208 -57 78 -1 90 2 128 26 30 20 49 44 71 90 30 65 61 191 61 252 0 20 20
78 50 141 49 105 50 109 50 201 l0 94 65 0 64 0 5 33 c4 29 257 5604 256 5654
0 18 6 22 37 25 35 3 41 9 135 149 111 167 258 329 381 421 196 145 477 255
837 328 l135 27 5 84 5 84 945 118 c520 66 947 121 950 124 3 2 7 109 10 236
l5 232 40 3 41 3 12 64 c30 162 173 379 288 438 46 24 131 45 222 56 46 6 101
16 123 22 49 15 108 65 148 126 l31 46 0 -50 c0 -27 36 -962 80 -2077 44
-1115 80 -2041 80 -2059 0 -31 5 -35 90 -81 l90 -49 0 -58 c0 -32 4 -60 9 -63
5 -4 37 -10 70 -14 50 -7 68 -15 95 -41 l34 -33 -14 -45 c-29 -95 -10 -155 64
-207 85 -59 256 -92 338 -66 125 40 185 181 126 296 -20 39 -124 144 -143 144
-11 0 -89 70 -89 80 0 4 31 13 70 20 67 13 70 14 74 44 3 17 62 1062 131 2321
69 1260 128 2323 131 2363 l6 72 34 0 c23 0 34 5 34 14 0 8 21 56 47 107 33
64 69 114 119 168 125 133 110 128 389 141 132 6 250 13 262 16 16 3 28 19 43
62 l21 58 137 17 c296 37 469 96 562 192 l45 46 3 129 c3 122 5 128 25 134 45
11 118 69 145 115 l27 46 3 1379 c3 1516 6 1437 -58 1524 -143 197 -626 367
-1500 526 -926 169 -1970 268 -2991 283 l-415 6 -42 125 c-23 69 -39 128 -37
132 3 4 20 11 39 14 59 11 583 172 847 259 992 331 1468 550 2082 959 439 292
861 628 1189 947 230 223 360 387 439 555 79 170 84 245 30 457 -37 147 -52
179 -121 250 -168 172 -567 347 -1060 464 -579 139 -953 257 -1410 447 -205
85 -431 189 -428 198 2 4 391 361 865 794 474 433 860 793 858 799 -2 7 -9 45
-15 85 l-12 72 -271 -1 c-150 -1 -1109 -15 -2132 -30z m-1300 -6371 c6 -32 25
-140 25 -149 0 -10 -181 -18 -670 -29 -371 -9 -628 -23 -832 -46 l-58 -6 0 30
0 29 168 7 c390 16 662 50 1088 136 131 26 247 48 256 49 11 1 20 -8 23 -21z
m-7574 -2398 l3208 -1060 160 0 161 0 0 -25 0 -25 -170 0 -169 0 -3208 1061
c-1764 583 -3211 1063 -3215 1065 -4 3 -8 17 -8 31 0 20 4 24 17 19 10 -4
1460 -484 3224 -1066z m3722 -972 c-7 -46 -15 -131 -19 -189 l-7 -106 46 -84
c58 -108 83 -191 98 -326 38 -349 -55 -840 -224 -1178 -97 -196 -221 -316
-434 -424 -166 -83 -278 -104 -648 -121 -241 -11 -373 -24 -440 -41 -88 -23
-174 -159 -204 -323 -7 -38 -11 -233 -11 -528 0 -467 0 -468 -21 -468 l-20 0
3 503 c4 483 5 504 26 567 39 119 132 249 197 276 55 22 149 33 410 44 420 18
580 51 747 151 86 51 227 188 287 276 130 195 230 491 272 803 18 134 15 403
-5 524 -19 117 -57 235 -89 277 -19 26 -22 46 -25 137 -4 94 12 284 25 305 2
4 14 7 27 7 l22 0 -13 -82z m-4748 -1304 c1490 -608 2713 -1109 2718 -1113 4
-4 -14 -34 -39 -67 -25 -32 -55 -76 -65 -96 -27 -53 -42 -169 -35 -270 l6 -87
-83 34 c-45 19 -1382 577 -2972 1239 l-2890 1204 -3 121 -3 121 78 1 c43 1
139 5 213 8 74 4 187 8 250 9 l114 2 2711 -1106z m3845 -3553 l0 -668 -55
-129 -54 -129 -1 55 c-1 132 21 1411 26 1467 6 66 3 63 72 72 9 1 12 -139 12
-668z m289 585 c102 -50 121 -56 177 -56 l62 0 -180 -417 c-99 -230 -193 -447
-209 -483 l-28 -65 -1 552 0 552 33 -14 c18 -7 84 -39 146 -69z m644 -67 c73
-19 159 -125 217 -265 l21 -50 -517 -1340 c-284 -736 -519 -1345 -523 -1352
-8 -14 -21 919 -21 1477 l0 316 267 612 c262 599 269 612 298 617 45 6 215 -3
258 -15z m-897 -2344 l17 -860 -118 -247 c-65 -136 -119 -247 -120 -245 -1 1
10 443 25 982 l27 980 74 133 c41 73 75 129 76 125 1 -5 9 -395 19 -868z m19
-1483 c-7 -7 -117 67 -113 77 2 4 28 66 58 137 l55 129 3 -169 c1 -93 0 -171
-3 -174z"/>
</g>
</svg>
